<?xml version="1.0" encoding="UTF-8"?>
<svg xmlns="http://www.w3.org/2000/svg" xmlns:xlink="http://www.w3.org/1999/xlink" viewBox="0 0 256 256" width="256px" height="256px">
<g id="surface9453772">
<path style=" stroke:none;fill-rule:nonzero;fill:rgb(90.196079%,31.764707%,0%);fill-opacity:1;" d="M 218.667969 26.667969 L 37.332031 26.667969 L 53.332031 208 L 128 229.332031 L 202.667969 208 Z M 218.667969 26.667969 "/>
<path style=" stroke:none;fill-rule:nonzero;fill:rgb(100%,42.745098%,0%);fill-opacity:1;" d="M 128 42.667969 L 128 212.800781 L 187.734375 195.734375 L 201.066406 42.667969 Z M 128 42.667969 "/>
<path style=" stroke:none;fill-rule:nonzero;fill:rgb(100%,100%,100%);fill-opacity:1;" d="M 128 133.332031 L 128 112 L 173.867188 112 L 170.132812 173.332031 L 128 187.199219 L 128 164.800781 L 149.867188 157.332031 L 151.464844 133.332031 Z M 175.464844 90.667969 L 177.066406 69.332031 L 128 69.332031 L 128 90.667969 Z M 175.464844 90.667969 "/>
<path style=" stroke:none;fill-rule:nonzero;fill:rgb(93.333334%,93.333334%,93.333334%);fill-opacity:1;" d="M 128 164.800781 L 128 187.199219 L 85.867188 173.332031 L 83.734375 144 L 105.066406 144 L 106.132812 157.332031 Z M 101.867188 90.667969 L 128 90.667969 L 128 69.332031 L 79.464844 69.332031 L 83.199219 133.332031 L 128 133.332031 L 128 112 L 103.464844 112 Z M 101.867188 90.667969 "/>
</g>
</svg>
